# xmcd
#
# Track frame offsets:
# 150
# 16679
# 28376
# 42851
# 53419
# 68314
# 79411
# 95421
# 111341
# 126039
# 141836
# 159436
# 173191
# 187126
#
# Disc length: 2644 seconds
#
#
# Revision: 0
# Processed by: cddbd v1.5.2PL0 Copyright (c) Steve Scherf et al.
# Submitted via: FreeRIP 2.96 
#
DISCID=b40a520e
DTITLE=CEZAR E PAULINHO - SUPER 3 - CEZAR E PAULINHO - CD1
DYEAR=1900
DGENRE=
TTITLE0=CHIQUE NU ÚRTIMO-VERDADE DE PESCADOR
TTITLE1=A MULHER DA MINHA VIDA
TTITLE2=NÓIS É DO MATO, MAS NOIS CONHECE
TTITLE3=VOU BUSCAR QUEM EU AMO(A LOIRA DO CARRO bRANCO)
TTITLE4=A GATA DO BMW
TTITLE5=PÉ DE BODE-PISA NO FREIO ZÉ
TTITLE6=MEL E MORANGO
TTITLE7=SÓ POR VOCÊ
TTITLE8=TUDO POR ELA
TTITLE9=O CONVITE
TTITLE10=O FEIJÃO E A FLOR
TTITLE11=VAI DE RODA
TTITLE12=MOTO VERMELHA
TTITLE13=DEUSA E DAMA
EXTD=
EXTT0=
EXTT1=
EXTT2=
EXTT3=
EXTT4=
EXTT5=
EXTT6=
EXTT7=
EXTT8=
EXTT9=
EXTT10=
EXTT11=
EXTT12=
EXTT13=
PLAYORDER=
